# 3ds Max Wavefront OBJ Exporter v0.97b - (c)2007 guruware
# File Created: 26.02.2018 13:16:17

mtllib CP.mtl

#
# object Plane002
#

v  5.5980 0.0000 -0.8743
v  6.7765 0.2556 -0.8743
v  6.7765 0.2556 0.8743
v  5.5980 0.0000 0.8743
v  7.5097 1.6987 -0.8743
v  7.5097 1.6987 0.8743
v  7.9776 3.5515 -0.8743
v  7.9776 3.5515 0.8743
v  8.0820 5.8042 -0.8743
v  8.0820 5.8042 0.8743
v  7.8775 7.6412 -0.8743
v  7.8775 7.6412 0.8743
v  7.0377 9.6591 -0.8743
v  7.0377 9.6591 0.8743
v  5.9448 11.2748 -0.8743
v  5.9448 11.2748 0.8743
v  4.2152 12.7297 -0.8743
v  4.2152 12.7297 0.8743
v  1.7799 13.4748 -0.8743
v  1.7799 13.4748 0.8743
v  0.0000 13.6925 -0.8743
v  0.0000 13.6925 0.8743
v  -5.5980 0.0000 -0.8743
v  -5.5980 0.0000 0.8743
v  -6.7765 0.2556 0.8743
v  -6.7765 0.2556 -0.8743
v  -7.5097 1.6987 0.8743
v  -7.5097 1.6987 -0.8743
v  -7.9776 3.5515 0.8743
v  -7.9776 3.5515 -0.8743
v  -8.0820 5.8042 0.8743
v  -8.0820 5.8042 -0.8743
v  -7.8775 7.6412 0.8743
v  -7.8775 7.6412 -0.8743
v  -7.0377 9.6591 0.8743
v  -7.0377 9.6591 -0.8743
v  -5.9448 11.2748 0.8743
v  -5.9448 11.2748 -0.8743
v  -4.2152 12.7297 0.8743
v  -4.2152 12.7297 -0.8743
v  -1.7799 13.4748 0.8743
v  -1.7799 13.4748 -0.8743
# 42 vertices

vn 0.1066 -0.9943 -0.0000
vn 0.2119 -0.9773 -0.0000
vn 0.8915 -0.4530 -0.0000
vn 0.9363 -0.3511 -0.0000
vn 0.9892 -0.1463 -0.0000
vn 0.9995 0.0323 -0.0000
vn 0.9683 0.2499 -0.0000
vn 0.8802 0.4746 -0.0000
vn 0.7431 0.6692 -0.0000
vn 0.4778 0.8785 -0.0000
vn 0.2078 0.9782 -0.0000
vn 0.0000 1.0000 -0.0000
vn -0.1066 -0.9943 -0.0000
vn -0.2119 -0.9773 -0.0000
vn -0.8915 -0.4530 -0.0000
vn -0.9363 -0.3511 -0.0000
vn -0.9892 -0.1463 -0.0000
vn -0.9995 0.0323 -0.0000
vn -0.9683 0.2499 -0.0000
vn -0.8802 0.4746 -0.0000
vn -0.7431 0.6692 -0.0000
vn -0.4778 0.8785 -0.0000
vn -0.2078 0.9782 -0.0000
vn 0.0000 0.0000 -1.0000
vn 0.0000 0.0000 1.0000
# 25 vertex normals

vt 0.6230 0.6396 0.0000
vt 0.6230 0.6024 0.0000
vt 0.6770 0.6024 0.0000
vt 0.6770 0.6396 0.0000
vt 0.6230 0.5524 0.0000
vt 0.6770 0.5524 0.0000
vt 0.6230 0.4935 0.0000
vt 0.6770 0.4935 0.0000
vt 0.6230 0.4239 0.0000
vt 0.6770 0.4239 0.0000
vt 0.6231 0.3669 0.0000
vt 0.6770 0.3669 0.0000
vt 0.6231 0.2995 0.0000
vt 0.6770 0.2995 0.0000
vt 0.6231 0.2393 0.0000
vt 0.6770 0.2393 0.0000
vt 0.6231 0.1696 0.0000
vt 0.6770 0.1696 0.0000
vt 0.6231 0.0910 0.0000
vt 0.6770 0.0910 0.0000
vt 0.6231 0.0357 0.0000
vt 0.6770 0.0357 0.0000
vt 0.6230 0.9850 0.0000
vt 0.6770 0.9850 0.0000
vt 0.8211 0.9780 0.0000
vt 0.7398 0.9771 0.0000
vt 0.7404 0.9210 0.0000
vt 0.8217 0.9219 0.0000
vt 0.7412 0.8457 0.0000
vt 0.8225 0.8466 0.0000
vt 0.7422 0.7569 0.0000
vt 0.8235 0.7577 0.0000
vt 0.7433 0.6520 0.0000
vt 0.8246 0.6529 0.0000
vt 0.7442 0.5661 0.0000
vt 0.8255 0.5669 0.0000
vt 0.7453 0.4644 0.0000
vt 0.8266 0.4653 0.0000
vt 0.7463 0.3737 0.0000
vt 0.8276 0.3746 0.0000
vt 0.7474 0.2686 0.0000
vt 0.8287 0.2695 0.0000
vt 0.7487 0.1502 0.0000
vt 0.8300 0.1511 0.0000
vt 0.7496 0.0668 0.0000
vt 0.8309 0.0677 0.0000
vt 0.4795 0.5206 0.0000
vt 0.5205 0.5293 0.0000
vt 0.0501 0.5309 0.0000
vt 0.0910 0.5219 0.0000
vt 0.4830 0.0311 0.0000
vt 0.5238 0.0406 0.0000
vt 0.0535 0.0340 0.0000
vt 0.0945 0.0257 0.0000
vt 0.0248 0.5811 0.0000
vt 0.5461 0.5793 0.0000
vt 0.0273 0.0837 0.0000
vt 0.5485 0.0910 0.0000
vt 0.0088 0.6455 0.0000
vt 0.5625 0.6435 0.0000
vt 0.0102 0.1478 0.0000
vt 0.5638 0.1555 0.0000
vt 0.0055 0.7236 0.0000
vt 0.5664 0.7217 0.0000
vt 0.0055 0.2259 0.0000
vt 0.5664 0.2337 0.0000
vt 0.0128 0.7874 0.0000
vt 0.5596 0.7855 0.0000
vt 0.0117 0.2897 0.0000
vt 0.5584 0.2974 0.0000
vt 0.0422 0.8573 0.0000
vt 0.5306 0.8556 0.0000
vt 0.0398 0.3602 0.0000
vt 0.5283 0.3670 0.0000
vt 0.0803 0.9132 0.0000
vt 0.4929 0.9118 0.0000
vt 0.0770 0.4168 0.0000
vt 0.4895 0.4226 0.0000
vt 0.1405 0.9635 0.0000
vt 0.4330 0.9625 0.0000
vt 0.1363 0.4681 0.0000
vt 0.4288 0.4722 0.0000
vt 0.2251 0.9891 0.0000
vt 0.3486 0.9887 0.0000
vt 0.2204 0.4951 0.0000
vt 0.3439 0.4969 0.0000
vt 0.2869 0.9964 0.0000
vt 0.2821 0.5036 0.0000
# 88 texture coords

g Plane002
usemtl wire_028028177
s 1
f 1/1/1 2/2/2 3/3/2 4/4/1 
s 2
f 2/2/3 5/5/4 6/6/4 3/3/3 
f 5/5/4 7/7/5 8/8/5 6/6/4 
f 7/7/5 9/9/6 10/10/6 8/8/5 
f 9/9/6 11/11/7 12/12/7 10/10/6 
f 11/11/7 13/13/8 14/14/8 12/12/7 
f 13/13/8 15/15/9 16/16/9 14/14/8 
f 15/15/9 17/17/10 18/18/10 16/16/9 
f 17/17/10 19/19/11 20/20/11 18/18/10 
f 19/19/11 21/21/12 22/22/12 20/20/11 
s 1
f 23/23/13 1/1/1 4/4/1 24/24/13 
f 23/25/13 24/26/13 25/27/14 26/28/14 
s 2
f 26/28/15 25/27/15 27/29/16 28/30/16 
f 28/30/16 27/29/16 29/31/17 30/32/17 
f 30/32/17 29/31/17 31/33/18 32/34/18 
f 32/34/18 31/33/18 33/35/19 34/36/19 
f 34/36/19 33/35/19 35/37/20 36/38/20 
f 36/38/20 35/37/20 37/39/21 38/40/21 
f 38/40/21 37/39/21 39/41/22 40/42/22 
f 40/42/22 39/41/22 41/43/23 42/44/23 
f 42/44/23 41/43/23 22/45/12 21/46/12 
s 4
f 23/47/24 26/48/24 2/49/24 1/50/24 
f 4/51/25 3/52/25 25/53/25 24/54/25 
f 5/55/24 2/49/24 26/48/24 28/56/24 
f 27/57/25 25/53/25 3/52/25 6/58/25 
f 7/59/24 5/55/24 28/56/24 30/60/24 
f 29/61/25 27/57/25 6/58/25 8/62/25 
f 9/63/24 7/59/24 30/60/24 32/64/24 
f 31/65/25 29/61/25 8/62/25 10/66/25 
f 11/67/24 9/63/24 32/64/24 34/68/24 
f 33/69/25 31/65/25 10/66/25 12/70/25 
f 13/71/24 11/67/24 34/68/24 36/72/24 
f 35/73/25 33/69/25 12/70/25 14/74/25 
f 15/75/24 13/71/24 36/72/24 38/76/24 
f 37/77/25 35/73/25 14/74/25 16/78/25 
f 17/79/24 15/75/24 38/76/24 40/80/24 
f 39/81/25 37/77/25 16/78/25 18/82/25 
f 19/83/24 17/79/24 40/80/24 42/84/24 
f 41/85/25 39/81/25 18/82/25 20/86/25 
f 19/83/24 42/84/24 21/87/24 
f 41/85/25 20/86/25 22/88/25 
# 39 polygons - 2 triangles

