# 3ds Max Wavefront OBJ Exporter v0.97b - (c)2007 guruware
# File Created: 25.02.2018 16:18:58

mtllib Spine.mtl

#
# object default
#

v  -0.4184 0.0000 19.9160
v  -6.0967 -5.1385 -10.2402
v  5.2599 -5.1385 -10.2402
v  5.2599 5.1385 -10.2402
v  -6.0967 5.1385 -10.2402
v  -0.4184 0.0000 -10.2402
# 6 vertices

vn 0.0000 -0.0000 1.0000
vn -0.6213 -0.6154 -0.4850
vn 0.6213 -0.6154 -0.4850
vn 0.6213 0.6154 -0.4850
vn -0.6213 0.6154 -0.4850
vn 0.0000 0.0000 -1.0000
# 6 vertex normals

vt 0.2904 0.9769 0.0000
vt 0.1346 0.0381 0.0000
vt 0.4819 0.0447 0.0000
vt 0.2965 0.9844 0.0000
vt 0.1388 0.0459 0.0000
vt 0.4532 0.0457 0.0000
vt 0.2922 0.9373 0.0000
vt 0.1425 0.0445 0.0000
vt 0.4729 0.0503 0.0000
vt 0.5385 0.8161 0.0000
vt 0.7037 0.6508 0.0000
vt 0.8689 0.8161 0.0000
vt 0.8689 0.4856 0.0000
vt 0.5385 0.4856 0.0000
vt 0.2901 0.9828 0.0000
vt 0.1437 0.0424 0.0000
vt 0.4580 0.0461 0.0000
# 17 texture coords

g default
usemtl _spine0_0
s 1
f 1/1/1 2/2/2 3/3/3 
f 1/4/1 3/5/3 4/6/4 
f 1/7/1 4/8/4 5/9/5 
f 4/10/4 6/11/6 5/12/5 
f 5/12/5 6/11/6 2/13/2 
f 3/14/3 6/11/6 4/10/4 
f 2/13/2 6/11/6 3/14/3 
f 1/15/1 5/16/5 2/17/2 
# 0 polygons - 8 triangles

