# 3ds Max Wavefront OBJ Exporter v0.97b - (c)2007 guruware
# File Created: 20.02.2018 11:38:33

mtllib Bomb.mtl

#
# object Cylinder001
#

v  118.5433 33.1455 28.9199
v  116.7331 43.4115 28.9199
v  116.7331 43.4115 32.6124
v  118.5433 33.1455 32.6124
v  111.5209 52.4392 28.9199
v  111.5209 52.4392 32.6124
v  104.0910 57.9426 28.7773
v  104.0910 57.9426 32.7557
v  91.8219 62.3234 28.7773
v  83.3154 62.7052 28.9199
v  83.3154 62.7052 32.6124
v  91.8219 62.3234 32.7557
v  73.5197 59.1399 28.9199
v  73.5197 59.1399 32.6124
v  65.5342 52.4392 28.9199
v  65.5342 52.4392 32.6124
v  60.3220 43.4115 28.9199
v  60.3220 43.4115 32.6124
v  58.5118 33.1455 28.9199
v  58.5118 33.1455 32.6124
v  60.3220 22.8795 28.9199
v  60.3220 22.8795 32.6124
v  65.5342 13.8517 28.9199
v  65.5342 13.8517 32.6124
v  73.5197 7.1511 28.9199
v  73.5197 7.1511 32.6124
v  83.3154 3.5858 28.9199
v  83.3154 3.5858 32.6124
v  93.7397 3.5858 28.9199
v  93.7397 3.5858 32.6124
v  103.5354 7.1511 28.9199
v  103.5354 7.1511 32.6124
v  111.5209 13.8517 28.9199
v  111.5209 13.8517 32.6124
v  116.7331 22.8795 28.9199
v  116.7331 22.8795 32.6124
v  105.6008 60.8057 28.7773
v  105.6008 60.8057 32.7557
v  93.3317 65.1865 28.7773
v  93.3317 65.1865 32.7557
v  92.0623 65.7388 32.7743
v  92.0623 65.7388 28.7814
v  94.1140 66.8430 28.7773
v  106.3832 62.4622 28.7773
v  106.3832 62.4622 32.7557
v  94.1140 66.8430 32.7557
v  92.8447 67.3952 28.7814
v  106.6691 60.4243 32.7639
v  107.4515 62.0807 32.7639
v  92.8447 67.3952 32.7743
v  106.6691 60.4243 28.7692
v  107.4515 62.0807 28.7692
v  98.1912 65.3872 29.6238
v  98.6691 65.2166 29.6214
v  101.4134 64.2367 29.6214
v  101.4134 64.2367 31.9140
v  98.6691 65.2166 31.9140
v  101.6523 64.1514 29.6167
v  101.6523 64.1514 31.9188
v  98.1912 65.3872 31.9248
v  99.5948 67.0747 29.6214
v  102.3391 66.0948 29.6214
v  102.3391 66.0948 31.9140
v  99.5948 67.0747 31.9140
v  99.1169 67.2453 29.6238
v  102.5780 66.0095 31.9188
v  99.1169 67.2453 31.9248
v  102.5780 66.0095 29.6167
v  101.0873 69.6749 29.6214
v  103.8316 68.6950 29.6214
v  103.8316 68.6950 31.9140
v  101.0873 69.6749 31.9140
v  100.6094 69.8455 29.6238
v  104.0706 68.6097 31.9188
v  100.6094 69.8455 31.9248
v  104.0706 68.6097 29.6167
v  102.9162 72.8980 29.6214
v  105.5723 71.7129 29.6214
v  105.5723 71.7129 31.9140
v  102.9162 72.8980 31.9140
v  102.4536 73.1044 29.6238
v  105.8036 71.6097 31.9188
v  102.4536 73.1044 31.9248
v  105.8036 71.6097 29.6167
v  105.2414 76.6403 29.6214
v  107.8975 75.4552 29.6214
v  107.8975 75.4552 31.9140
v  105.2414 76.6403 31.9140
v  104.7788 76.8467 29.6238
v  108.1288 75.3520 31.9188
v  104.7788 76.8467 31.9248
v  108.1288 75.3520 29.6167
v  107.3377 79.7284 29.6214
v  109.9939 78.5433 29.6214
v  109.9939 78.5433 31.9140
v  107.3377 79.7284 31.9140
v  106.8752 79.9348 29.6238
v  110.2251 78.4401 31.9188
v  106.8752 79.9348 31.9248
v  110.2251 78.4401 29.6167
v  110.0651 83.5117 29.6214
v  112.4851 81.9447 29.6214
v  112.4851 81.9447 31.9140
v  110.0651 83.5117 31.9140
v  109.6437 83.7846 29.6238
v  112.6959 81.8082 31.9188
v  109.6437 83.7846 31.9248
v  112.6959 81.8082 29.6167
# 108 vertices

vn 1.0000 -0.0000 0.0000
vn 0.9397 0.3420 0.0000
vn 1.0000 -0.0000 -0.0000
vn 0.7455 0.6665 -0.0000
vn 0.7455 0.6665 0.0000
vn 0.5952 0.8036 -0.0000
vn 0.0448 0.9990 -0.0000
vn -0.1505 0.9886 -0.0000
vn -0.5000 0.8660 -0.0000
vn -0.7660 0.6428 0.0000
vn -0.7660 0.6428 -0.0000
vn -0.9397 0.3420 0.0000
vn -1.0000 0.0000 -0.0000
vn -1.0000 0.0000 0.0000
vn -0.9397 -0.3420 -0.0000
vn -0.7660 -0.6428 -0.0000
vn -0.5000 -0.8660 -0.0000
vn -0.1736 -0.9848 -0.0000
vn 0.1736 -0.9848 -0.0000
vn 0.5000 -0.8660 -0.0000
vn 0.7660 -0.6428 -0.0000
vn 0.9397 -0.3420 -0.0000
vn 0.0000 0.0000 -1.0000
vn -0.0000 0.0000 -1.0000
vn -0.0000 -0.0000 1.0000
vn 0.0000 -0.0000 1.0000
vn 0.8846 -0.4664 0.0000
vn -0.0116 -0.0318 -0.9994
vn -0.0127 -0.0357 -0.9993
vn -0.0009 0.0004 -1.0000
vn -0.0021 0.0010 -1.0000
vn -0.8846 0.4664 0.0000
vn -0.8846 0.4664 -0.0000
vn -0.0128 -0.0359 0.9993
vn -0.0116 -0.0320 0.9994
vn -0.0021 0.0010 1.0000
vn 0.0041 -0.0019 1.0000
vn -0.3990 -0.9170 -0.0000
vn -0.0013 0.0006 -1.0000
vn -0.0035 0.0016 -1.0000
vn -0.0035 0.0017 1.0000
vn 0.0059 -0.0028 1.0000
vn -0.0027 0.0013 -1.0000
vn -0.0066 0.0031 1.0000
vn 0.0122 -0.0058 0.9999
vn -0.9042 0.4271 -0.0000
vn -0.9042 0.4271 0.0000
vn 0.9042 -0.4271 0.0000
vn 0.9042 -0.4271 -0.0000
vn -0.0065 0.0031 -1.0000
vn 0.3756 0.8760 -0.3025
vn 0.3559 0.9340 -0.0322
vn 0.3425 0.9395 -0.0033
vn 0.3363 0.9418 0.0000
vn 0.3363 0.9418 0.0001
vn 0.3722 0.8524 0.3672
vn 0.3363 0.9418 -0.0001
vn 0.3363 0.9418 -0.0000
vn 0.3369 0.9415 -0.0001
vn 0.3555 0.9341 0.0326
vn 0.3391 0.9372 -0.0811
vn -0.0077 0.0038 -1.0000
vn -0.0023 0.0011 -1.0000
vn -0.0021 0.0011 -1.0000
vn -0.0081 0.0043 -1.0000
vn 0.0103 -0.0051 0.9999
vn -0.0078 0.0039 1.0000
vn -0.0082 0.0044 1.0000
vn 0.0096 -0.0052 0.9999
vn -0.0042 0.0021 -1.0000
vn -0.0042 0.0022 -1.0000
vn -0.0169 0.0084 0.9998
vn -0.0167 0.0090 0.9998
vn 0.0191 -0.0095 0.9998
vn 0.0189 -0.0101 0.9998
vn -0.8951 0.4459 0.0000
vn -0.8816 0.4721 0.0000
vn 0.8951 -0.4459 -0.0000
vn 0.8951 -0.4459 0.0000
vn 0.8816 -0.4721 -0.0000
vn -0.0167 0.0083 -0.9998
vn -0.0165 0.0089 -0.9998
vn -0.0021 0.0012 -1.0000
vn -0.0082 0.0047 -1.0000
vn -0.0083 0.0048 1.0000
vn 0.0093 -0.0053 0.9999
vn -0.0041 0.0024 -1.0000
vn -0.0165 0.0095 0.9998
vn 0.0187 -0.0107 0.9998
vn -0.8688 0.4952 0.0000
vn 0.8666 -0.4990 -0.0000
vn -0.0163 0.0094 -0.9998
vn -0.0079 0.0047 -1.0000
vn -0.0080 0.0048 1.0000
vn 0.0093 -0.0055 0.9999
vn -0.0162 0.0098 0.9998
vn 0.0184 -0.0109 0.9998
vn -0.8600 0.5102 0.0000
vn 0.8578 -0.5140 -0.0000
vn -0.0160 0.0096 -0.9998
vn -0.0020 0.0013 -1.0000
vn -0.0078 0.0050 -1.0000
vn -0.0079 0.0051 1.0000
vn 0.0091 -0.0060 0.9999
vn -0.0040 0.0026 -1.0000
vn -0.0159 0.0104 0.9998
vn 0.0181 -0.0117 0.9998
vn -0.8386 0.5448 -0.0000
vn 0.8386 -0.5448 -0.0000
vn -0.0158 0.0103 -0.9998
vn -0.0020 0.0014 -1.0000
vn -0.0077 0.0054 -1.0000
vn -0.0077 0.0054 1.0000
vn 0.0089 -0.0063 0.9999
vn -0.0039 0.0027 -1.0000
vn -0.0156 0.0111 0.9998
vn 0.0177 -0.0124 0.9998
vn -0.8197 0.5728 0.0000
vn 0.8170 -0.5767 -0.0000
vn -0.0155 0.0110 -0.9998
vn -0.0019 0.0013 -1.0000
vn -0.0078 0.0058 -1.0000
vn -0.0079 0.0058 1.0000
vn 0.0084 -0.0061 0.9999
vn -0.0038 0.0028 -1.0000
vn -0.0153 0.0112 0.9998
vn 0.0174 -0.0125 0.9998
vn -0.8119 0.5838 -0.0000
vn 0.8063 -0.5915 -0.0000
vn -0.0151 0.0111 -0.9998
vn -0.0021 -0.0058 -1.0000
vn -0.0020 -0.0054 -1.0000
vn -0.0021 -0.0058 1.0000
vn -0.0020 -0.0054 1.0000
vn 0.5435 0.8394 0.0000
vn -0.3363 -0.9418 0.0000
# 136 vertex normals

vt 0.3189 0.7497 0.0000
vt 0.3713 0.8409 0.0000
vt 0.3366 0.8606 0.0000
vt 0.2776 0.7582 0.0000
vt 0.4521 0.9092 0.0000
vt 0.4264 0.9365 0.0000
vt 0.5367 0.9369 0.0000
vt 0.5190 0.9763 0.0000
vt 0.6767 0.9396 0.0000
vt 0.7609 0.9134 0.0000
vt 0.7796 0.9449 0.0000
vt 0.6934 0.9795 0.0000
vt 0.8435 0.8472 0.0000
vt 0.8725 0.8733 0.0000
vt 0.8982 0.7573 0.0000
vt 0.9362 0.7737 0.0000
vt 0.9182 0.6543 0.0000
vt 0.9605 0.6579 0.0000
vt 0.9009 0.5508 0.0000
vt 0.9416 0.5411 0.0000
vt 0.8483 0.4597 0.0000
vt 0.8819 0.4385 0.0000
vt 0.7671 0.3921 0.0000
vt 0.7897 0.3630 0.0000
vt 0.6670 0.3557 0.0000
vt 0.6771 0.3225 0.0000
vt 0.5603 0.3544 0.0000
vt 0.5574 0.3199 0.0000
vt 0.4593 0.3882 0.0000
vt 0.4432 0.3552 0.0000
vt 0.3763 0.4537 0.0000
vt 0.3475 0.4262 0.0000
vt 0.3215 0.5434 0.0000
vt 0.2831 0.5258 0.0000
vt 0.3015 0.6463 0.0000
vt 0.2588 0.6416 0.0000
vt 0.8944 0.7605 0.0000
vt 0.9137 0.6569 0.0000
vt 0.3070 0.6515 0.0000
vt 0.3243 0.7554 0.0000
vt 0.0190 0.5955 0.0000
vt 0.0917 0.5947 0.0000
vt 0.0923 0.6539 0.0000
vt 0.0196 0.6547 0.0000
vt 0.4212 0.0533 0.0000
vt 0.9252 0.0363 0.0000
vt 0.9116 0.1609 0.0000
vt 0.4076 0.1778 0.0000
vt 0.1147 0.4762 0.0000
vt 0.1874 0.4756 0.0000
vt 0.1879 0.5348 0.0000
vt 0.1152 0.5354 0.0000
vt 0.9295 0.0421 0.0000
vt 0.4253 0.0492 0.0000
vt 0.4093 0.1735 0.0000
vt 0.9134 0.1664 0.0000
vt 0.1885 0.5601 0.0000
vt 0.1155 0.5607 0.0000
vt 0.9070 0.2316 0.0000
vt 0.4030 0.2486 0.0000
vt 0.4033 0.2441 0.0000
vt 0.9075 0.2370 0.0000
vt 0.9651 0.1627 0.0000
vt 0.9605 0.2334 0.0000
vt 0.3653 0.1741 0.0000
vt 0.3594 0.2448 0.0000
vt 0.9670 0.1692 0.0000
vt 0.9610 0.2399 0.0000
vt 0.1887 0.5936 0.0000
vt 0.1157 0.5942 0.0000
vt 0.0197 0.6754 0.0000
vt 0.0927 0.6746 0.0000
vt 0.0931 0.7081 0.0000
vt 0.0200 0.7089 0.0000
vt 0.3637 0.1793 0.0000
vt 0.3592 0.2500 0.0000
vt 0.2209 0.8628 0.0000
vt 0.2148 0.9339 0.0000
vt 0.2086 0.8476 0.0000
vt 0.2091 0.8289 0.0000
vt 0.2175 0.7052 0.0000
vt 0.2117 0.7902 0.0000
vt 0.1301 0.9183 0.0000
vt 0.1465 0.7038 0.0000
vt 0.1538 0.7927 0.0000
vt 0.1500 0.8403 0.0000
vt 0.2176 0.6822 0.0000
vt 0.2037 0.7926 0.0000
vt 0.1461 0.6830 0.0000
vt 0.1625 0.7931 0.0000
vt 0.1281 0.9405 0.0000
vt 0.1491 0.8488 0.0000
vt 0.2105 0.0323 0.0000
vt 0.2651 0.0208 0.0000
vt 0.2682 0.0604 0.0000
vt 0.2135 0.0720 0.0000
vt 0.0429 0.0221 0.0000
vt 0.0977 0.0328 0.0000
vt 0.0947 0.0725 0.0000
vt 0.0400 0.0617 0.0000
vt 0.2750 0.0189 0.0000
vt 0.2775 0.0585 0.0000
vt 0.1025 0.0338 0.0000
vt 0.0995 0.0734 0.0000
vt 0.0334 0.0202 0.0000
vt 0.0304 0.0599 0.0000
vt 0.3192 0.0165 0.0000
vt 0.3214 0.0564 0.0000
vt 0.1622 0.0355 0.0000
vt 0.2061 0.0332 0.0000
vt 0.2086 0.0730 0.0000
vt 0.1644 0.0751 0.0000
vt 0.2701 0.1177 0.0000
vt 0.2155 0.1296 0.0000
vt 0.0938 0.1299 0.0000
vt 0.0391 0.1192 0.0000
vt 0.2797 0.1156 0.0000
vt 0.0986 0.1309 0.0000
vt 0.0295 0.1173 0.0000
vt 0.3239 0.1140 0.0000
vt 0.2108 0.1306 0.0000
vt 0.1668 0.1321 0.0000
vt 0.2727 0.1885 0.0000
vt 0.2175 0.1965 0.0000
vt 0.0929 0.1967 0.0000
vt 0.0376 0.1902 0.0000
vt 0.2823 0.1870 0.0000
vt 0.0977 0.1972 0.0000
vt 0.0279 0.1890 0.0000
vt 0.3263 0.1862 0.0000
vt 0.2128 0.1973 0.0000
vt 0.1687 0.1980 0.0000
vt 0.2731 0.2725 0.0000
vt 0.2181 0.2813 0.0000
vt 0.0945 0.2811 0.0000
vt 0.0392 0.2746 0.0000
vt 0.2824 0.2710 0.0000
vt 0.0994 0.2816 0.0000
vt 0.0296 0.2734 0.0000
vt 0.3264 0.2709 0.0000
vt 0.2130 0.2821 0.0000
vt 0.1688 0.2821 0.0000
vt 0.2728 0.3437 0.0000
vt 0.2179 0.3532 0.0000
vt 0.0988 0.3524 0.0000
vt 0.0435 0.3459 0.0000
vt 0.2822 0.3422 0.0000
vt 0.1036 0.3530 0.0000
vt 0.0338 0.3448 0.0000
vt 0.3262 0.3423 0.0000
vt 0.2129 0.3538 0.0000
vt 0.1687 0.3537 0.0000
vt 0.2719 0.4331 0.0000
vt 0.2167 0.4339 0.0000
vt 0.1066 0.4328 0.0000
vt 0.0514 0.4349 0.0000
vt 0.2817 0.4331 0.0000
vt 0.1114 0.4327 0.0000
vt 0.0417 0.4353 0.0000
vt 0.3261 0.4331 0.0000
vt 0.2122 0.4338 0.0000
vt 0.1685 0.4338 0.0000
vt 0.6790 0.9395 0.0000
vt 0.5474 0.9400 0.0000
vt 0.5456 0.9430 0.0000
vt 0.6773 0.9433 0.0000
vt 0.7597 0.9183 0.0000
vt 0.4563 0.9156 0.0000
vt 0.8410 0.8513 0.0000
vt 0.3762 0.8471 0.0000
vt 0.8963 0.5530 0.0000
vt 0.3262 0.5479 0.0000
vt 0.8444 0.4613 0.0000
vt 0.3797 0.4572 0.0000
vt 0.7643 0.3929 0.0000
vt 0.4610 0.3902 0.0000
vt 0.6656 0.3560 0.0000
vt 0.5603 0.3550 0.0000
vt 0.2168 0.4776 0.0000
vt 0.2720 0.4772 0.0000
vt 0.2120 0.4778 0.0000
vt 0.2816 0.4773 0.0000
# 182 texture coords

g Cylinder001
usemtl Material__26
s 1
f 1/1/1 2/2/2 3/3/2 4/4/3 
f 2/2/2 5/5/4 6/6/5 3/3/2 
f 5/5/4 7/7/6 8/8/6 6/6/5 
f 9/9/7 10/10/8 11/11/8 12/12/7 
f 10/10/8 13/13/9 14/14/9 11/11/8 
f 13/13/9 15/15/10 16/16/11 14/14/9 
f 15/15/10 17/17/12 18/18/12 16/16/11 
f 17/17/12 19/19/13 20/20/14 18/18/12 
f 19/19/13 21/21/15 22/22/15 20/20/14 
f 21/21/15 23/23/16 24/24/16 22/22/15 
f 23/23/16 25/25/17 26/26/17 24/24/16 
f 25/25/17 27/27/18 28/28/18 26/26/17 
f 27/27/18 29/29/19 30/30/19 28/28/18 
f 29/29/19 31/31/20 32/32/20 30/30/19 
f 31/31/20 33/33/21 34/34/21 32/32/20 
f 33/33/21 35/35/22 36/36/22 34/34/21 
f 35/35/22 1/1/1 4/4/3 36/36/22 
s 2
f 17/17/23 15/15/24 1/1/24 35/35/24 
f 16/37/25 18/38/26 36/39/26 4/40/25 
s 4
f 8/41/27 7/42/27 37/43/27 38/44/27 
s 2
f 7/45/28 9/46/29 39/47/30 37/48/31 
s 4
f 9/49/32 12/50/33 40/51/32 39/52/32 
s 2
f 12/53/34 8/54/35 38/55/36 40/56/37 
s 1
f 39/52/38 40/51/38 41/57/38 42/58/38 
s 2
f 37/48/31 39/47/30 43/59/39 44/60/40 
f 40/56/37 38/55/36 45/61/41 46/62/42 
f 39/47/30 42/63/43 47/64/43 43/59/39 
f 38/55/36 48/65/44 49/66/44 45/61/41 
f 41/67/45 40/56/37 46/62/42 50/68/45 
s 4
f 42/58/46 41/57/47 50/69/47 47/70/46 
s 1
f 48/71/48 51/72/49 52/73/48 49/74/48 
s 2
f 51/75/50 37/48/31 44/60/40 52/76/50 
s 8
f 43/77/51 47/78/52 53/79/53 54/80/54 
f 44/81/55 43/77/51 54/80/54 55/82/54 
f 46/83/56 45/84/57 56/85/58 57/86/59 
f 52/87/54 44/81/55 55/82/54 58/88/57 
f 49/89/58 52/87/54 58/88/57 59/90/58 
f 45/84/57 49/89/58 59/90/58 56/85/58 
f 50/91/60 46/83/56 57/86/59 60/92/61 
f 47/78/52 50/91/60 60/92/61 53/79/53 
s 1
f 55/93/62 54/94/63 61/95/64 62/96/65 
f 57/97/66 56/98/67 63/99/68 64/100/69 
f 54/94/63 53/101/70 65/102/71 61/95/64 
f 56/98/67 59/103/72 66/104/73 63/99/68 
f 60/105/74 57/97/66 64/100/69 67/106/75 
s 2
f 53/101/76 60/107/76 67/108/77 65/102/77 
f 59/109/78 58/110/79 68/111/80 66/112/80 
s 1
f 58/110/81 55/93/62 62/96/65 68/111/82 
f 62/96/65 61/95/64 69/113/83 70/114/84 
f 64/100/69 63/99/68 71/115/85 72/116/86 
f 61/95/64 65/102/71 73/117/87 69/113/83 
f 63/99/68 66/104/73 74/118/88 71/115/85 
f 67/106/75 64/100/69 72/116/86 75/119/89 
s 2
f 65/102/77 67/108/77 75/120/90 73/117/90 
f 66/112/80 68/111/80 76/121/91 74/122/91 
s 1
f 68/111/82 62/96/65 70/114/84 76/121/92 
f 70/114/84 69/113/83 77/123/83 78/124/93 
f 72/116/86 71/115/85 79/125/94 80/126/95 
f 69/113/83 73/117/87 81/127/87 77/123/83 
f 71/115/85 74/118/88 82/128/96 79/125/94 
f 75/119/89 72/116/86 80/126/95 83/129/97 
s 2
f 73/117/90 75/120/90 83/130/98 81/127/98 
f 74/122/91 76/121/91 84/131/99 82/132/99 
s 1
f 76/121/92 70/114/84 78/124/93 84/131/100 
f 78/124/93 77/123/83 85/133/101 86/134/102 
f 80/126/95 79/125/94 87/135/103 88/136/104 
f 77/123/83 81/127/87 89/137/105 85/133/101 
f 79/125/94 82/128/96 90/138/106 87/135/103 
f 83/129/97 80/126/95 88/136/104 91/139/107 
s 2
f 81/127/98 83/130/98 91/140/108 89/137/108 
f 82/132/99 84/131/99 92/141/109 90/142/109 
s 1
f 84/131/100 78/124/93 86/134/102 92/141/110 
f 86/134/102 85/133/101 93/143/111 94/144/112 
f 88/136/104 87/135/103 95/145/113 96/146/114 
f 85/133/101 89/137/105 97/147/115 93/143/111 
f 87/135/103 90/138/106 98/148/116 95/145/113 
f 91/139/107 88/136/104 96/146/114 99/149/117 
s 2
f 89/137/108 91/140/108 99/150/118 97/147/118 
f 90/142/109 92/141/109 100/151/119 98/152/119 
s 1
f 92/141/110 86/134/102 94/144/112 100/151/120 
f 94/144/112 93/143/111 101/153/121 102/154/122 
f 96/146/114 95/145/113 103/155/123 104/156/124 
f 93/143/111 97/147/115 105/157/125 101/153/121 
f 95/145/113 98/148/116 106/158/126 103/155/123 
f 99/149/117 96/146/114 104/156/124 107/159/127 
s 2
f 97/147/118 99/150/118 107/160/128 105/157/128 
f 98/152/119 100/151/119 108/161/129 106/162/129 
s 1
f 100/151/120 94/144/112 102/154/122 108/161/130 
s 2
f 10/10/131 9/163/29 7/164/28 5/5/132 
f 8/165/35 12/166/34 11/167/133 6/168/134 
f 10/10/131 5/5/132 2/2/23 13/13/24 
f 6/168/134 11/167/133 14/169/25 3/170/26 
f 13/13/24 2/2/23 1/1/24 15/15/24 
f 3/170/26 14/169/25 16/37/25 4/40/25 
f 33/33/23 19/19/23 17/17/23 35/35/24 
f 20/171/25 34/172/25 36/39/26 18/38/26 
f 31/31/23 21/21/24 19/19/23 33/33/23 
f 22/173/26 32/174/25 34/172/25 20/171/25 
f 29/29/24 23/23/23 21/21/24 31/31/23 
f 24/175/26 30/176/26 32/174/25 22/173/26 
f 27/27/24 25/25/24 23/23/23 29/29/24 
f 26/177/25 28/178/25 30/176/26 24/175/26 
s off
f 103/179/135 102/154/135 101/153/135 104/180/135 
f 106/181/135 108/161/135 102/154/135 103/179/135 
f 101/153/135 105/157/135 107/182/135 104/180/135 
f 48/71/136 38/44/136 37/43/136 51/72/136 
# 106 polygons

